<svg width="96" height="96" viewBox="0 0 96 96" fill="none" xmlns="http://www.w3.org/2000/svg">
<rect width="96" height="96" rx="25" fill="#B3E5FC"/>
<path d="M2 27V22.5V22C2 10.9543 10.9543 2 22 2H27" stroke="#07A9F3" stroke-width="4"/>
<path d="M69 2L73.5 2H74C85.0457 2 94 10.9543 94 22V27" stroke="#07A9F3" stroke-width="4"/>
<path d="M94 69V73.5V74C94 85.0457 85.0457 94 74 94H69" stroke="#07A9F3" stroke-width="4"/>
<path d="M27 94H22.5H22C10.9543 94 2 85.0457 2 74L2 69" stroke="#07A9F3" stroke-width="4"/>
<rect x="26" y="25" width="5" height="14" fill="#07A9F3"/>
<rect x="66" y="25" width="5" height="14" fill="#07A9F3"/>
<rect x="46" y="25" width="5" height="20" fill="#07A9F3"/>
<path d="M48.5 45C48.5 52.2 43.1667 54 40.5 54" stroke="#07A9F3" stroke-width="5"/>
<path d="M33 69C44.5545 79.8666 58.4811 73.5277 64 69" stroke="#07A9F3" stroke-width="5"/>
</svg>
